<svg width="25" height="25" viewBox="0 0 25 25" fill="none" xmlns="http://www.w3.org/2000/svg">
<g clip-path="url(#clip0_329_1467)">
<path fill-rule="evenodd" clip-rule="evenodd" d="M11.2766 0.0298159C5.98541 0.579437 1.62342 4.33844 0.349788 9.44622C0.0631751 10.5957 0 11.1477 0 12.5038C0 13.8598 0.0631751 14.4118 0.349788 15.5613C1.46037 20.0151 4.9864 23.5401 9.44155 24.6503C10.5913 24.9368 11.1435 25 12.5 25C13.8565 25 14.4087 24.9368 15.5584 24.6503C20.0136 23.5401 23.5396 20.0151 24.6502 15.5613C24.9368 14.4118 25 13.8598 25 12.5038C25 11.1477 24.9368 10.5957 24.6502 9.44622C23.8277 6.14771 21.6919 3.34393 18.6692 1.59459C17.4491 0.888468 15.8116 0.32735 14.3106 0.100994C13.7049 0.00965996 11.8823 -0.0330959 11.2766 0.0298159ZM11.4479 1.499C8.8716 1.76361 6.51875 2.87978 4.69592 4.70201C3.00369 6.39378 1.94395 8.49179 1.55819 10.9138C1.44109 11.6491 1.44207 13.2384 1.5601 14.0203C1.86286 16.0258 2.60492 17.7702 3.80769 19.3037C3.966 19.5055 4.11046 19.6765 4.12876 19.6838C4.14706 19.691 4.19149 19.5809 4.22746 19.4392C4.26343 19.2974 4.36458 18.9927 4.45222 18.7621C5.2941 16.5467 7.05112 14.7493 9.27028 13.8334C9.52469 13.7283 9.53404 13.7184 9.44155 13.6528C9.21875 13.4946 8.5937 12.9027 8.40912 12.675C7.62048 11.7023 7.24984 10.6411 7.2473 9.34838C7.24588 8.64104 7.30127 8.28652 7.50807 7.67863C8.07973 5.99846 9.46152 4.71703 11.2032 4.2519C11.6398 4.13532 11.7797 4.12123 12.5 4.12123C13.2203 4.12123 13.3602 4.13532 13.7968 4.2519C15.5385 4.71703 16.9203 5.99846 17.4919 7.67863C17.6987 8.28652 17.7541 8.64104 17.7527 9.34838C17.7502 10.6416 17.3774 11.7083 16.59 12.6755C16.3821 12.9308 15.861 13.4293 15.6074 13.6153L15.4606 13.723L15.6319 13.7857C15.9926 13.9178 16.8482 14.3674 17.2467 14.6343C18.5905 15.5344 19.596 16.6999 20.2836 18.1541C20.5116 18.6363 20.819 19.4829 20.819 19.6285C20.819 19.7511 20.8896 19.6896 21.1923 19.3037C22.3951 17.7702 23.1371 16.0258 23.4399 14.0203C23.5579 13.2384 23.5589 11.6491 23.4418 10.9138C23.0561 8.49179 21.9963 6.39378 20.3041 4.70201C18.6175 3.01602 16.4767 1.93346 14.1149 1.57247C13.4898 1.47693 12.0493 1.43726 11.4479 1.499ZM11.829 5.62989C10.4937 5.872 9.33424 6.87379 8.90752 8.15423C8.52318 9.30744 8.72098 10.5917 9.43744 11.5955C9.87698 12.2113 10.585 12.7237 11.35 12.9796C11.7073 13.0991 11.8077 13.1106 12.5 13.1106C13.1923 13.1106 13.2927 13.0991 13.65 12.9796C15.3843 12.3994 16.4653 10.727 16.2628 8.93696C16.0176 6.76979 13.9691 5.24185 11.829 5.62989ZM11.3745 14.7743C8.32412 15.3129 6.00244 17.6138 5.47956 20.6166L5.41702 20.9755L5.69209 21.194C6.88391 22.141 8.504 22.916 10.0238 23.2663C11.5636 23.6211 13.4364 23.6211 14.9762 23.2663C16.4958 22.9161 18.1161 22.1409 19.3075 21.1943L19.5822 20.9761L19.5376 20.6903C19.3021 19.1806 18.5518 17.7501 17.4363 16.684C16.4357 15.7278 15.327 15.1425 13.9191 14.8274C13.4245 14.7167 11.8832 14.6845 11.3745 14.7743Z" fill="white"/>
</g>
<defs>
<clipPath id="clip0_329_1467">
<rect width="25" height="25" fill="white"/>
</clipPath>
</defs>
</svg>
